<?xml version="1.0" encoding="UTF-8"?>
<svg id="Calque_17" data-name="Calque 17" xmlns="http://www.w3.org/2000/svg" viewBox="0 0 1920 1080">
  <defs>
    <style>
      .cls-1 {
        fill: none;
        stroke: #fff;
        stroke-miterlimit: 10;
        stroke-width: 7px;
      }

      .cls-2 {
        fill: #fff;
      }
    </style>
  </defs>
  <g>
    <g>
      <path class="cls-2" d="M253.37,402.45h55.65v153.97s20.41-28.75,62.15-28.75c57.04,0,107.13,47.77,107.13,115.48s-50.09,115.48-107.13,115.48c-47.31,0-66.32-34.32-66.32-34.32v28.75h-51.48v-350.61ZM309.03,676.09s15.77,30.6,52.41,30.6,60.29-27.36,60.29-63.54-22.73-63.54-60.29-63.54-52.41,30.6-52.41,30.6v65.86Z"/>
      <path class="cls-2" d="M738.93,643.16c0,64.47-51.94,115.48-117.34,115.48s-117.34-51.01-117.34-115.48,51.94-115.48,117.34-115.48,117.34,50.55,117.34,115.48ZM700.36,643.29c0-44.56-30.11-82.5-78.89-82.5s-78.89,37.93-78.89,82.5,30.11,82.5,78.89,82.5,78.89-37.93,78.89-82.5Z"/>
      <path class="cls-2" d="M1006.83,619.97l78.84-86.72h71.89l-96.47,103.89,102.96,115.94h-73.28l-83.94-96v96h-55.65v-350.61h55.65v217.51Z"/>
      <path class="cls-2" d="M1190.37,402.45h55.65v350.61h-55.65v-350.61Z"/>
      <path class="cls-2" d="M1483.25,609.76v143.31h-51.48v-27.83s-22.73,33.39-72.35,33.39c-41.28,0-79.31-26.89-79.31-73.74,0-42.2,38.49-72.82,86.26-72.82,40.35,0,61.22,15.77,61.22,15.77v-12.52c0-28.75-27.83-38.03-47.31-38.03-32,0-65.86,16.23-65.86,16.23l-18.09-45.91s40.81-19.94,86.73-19.94c63.07,0,100.18,32,100.18,82.09ZM1427.6,686.75v-22.73s-19.94-11.13-50.09-11.13c-17.16,0-40.81,7.42-40.81,31.08s22.73,28.29,39.88,28.29c33.39,0,51.02-25.51,51.02-25.51Z"/>
      <path class="cls-2" d="M1544.8,683.06c20.41,0,36.64,16.23,36.64,36.64s-16.23,36.64-36.64,36.64-36.64-16.23-36.64-36.64,16.23-36.64,36.64-36.64Z"/>
      <g>
        <polyline class="cls-2" points="854.91 752.54 907.97 752.54 907.97 534.03 854.46 534.03"/>
        <path class="cls-2" d="M711.69,754.29c-2.15-.4-2.92-3.08-1.28-4.54,30.6-27.37,63.57-54.44,63.57-95.52.19-35.99-11.66-78.34-40.74-103.63-3.05-2.65-1.16-7.64,2.88-7.64h43.15c3.29,0,27.56,1.49,26.13,4.46-.98,2.05-23.48,6.67-22.3,10.21,4.45,13.35,8.9,79.97.06,102.41-.04.1,4.42-1.25,4.4-1.14-.43,2.92-11.17,45.5-20.83,63.78-3.29,6.22-.89,14,5.61,16.68,7.98,3.29,25.51,8.45,46.43,4.27,44.59-8.92,35.67-57.97,35.67-57.97l4.23,42.34c.14,1.45-.43,2.86-1.55,3.8-5.58,4.7-23.76,18.69-46.38,22.37-23.66,3.85-82.53,3.19-99.08.13Z"/>
      </g>
    </g>
    <g>
      <path class="cls-2" d="M1653.78,516.33c-17.72,24.02-41.84,53.65-75.32,50.29-29.3-2.94-44.74-33.75-51.24-58.96-7.83-30.37-8.49-65.03-28.9-90.55-9.51-11.88-22.68-18.66-37.82-19.89-14.37-1.17-29.57,1.93-42.95,7.08-29.21,11.22-53.91,33.45-66.85,62.09-3.52,7.8,8.02,14.61,11.57,6.76,11.26-24.92,32.02-45.17,57.48-55.4,13.12-5.27,28.29-8.78,42.47-6.97,14.78,1.89,25.25,11.77,32.1,24.45,15.59,28.83,13.54,63.76,25.73,93.88,10.35,25.58,30.71,49.33,60.04,51.02,38.08,2.2,64.86-29.38,85.27-57.05,5.12-6.94-6.5-13.63-11.57-6.76h0Z"/>
      <path class="cls-2" d="M1617.68,505.07c-9.62,10.82-26.01,15.06-39.38,8.8s-20.56-20.96-18.84-35.24c.51-4.27-6.19-4.23-6.7,0-2.05,17,7.63,34.73,23.46,41.6,15.72,6.83,34.87,2.31,46.2-10.43,2.86-3.21-1.87-7.97-4.74-4.74h0Z"/>
    </g>
  </g>
  <path class="cls-2" d="M488.6,385.47c-5.05,10.23-7.07,21.81-5.6,33.14.24,1.89,3.25,1.91,3,0-1.4-10.8.36-21.85,5.19-31.62.85-1.73-1.73-3.25-2.59-1.51h0Z"/>
  <path class="cls-2" d="M466.91,470.84c7.02-7.99,11.34-17.97,12.37-28.55.19-1.92-2.81-1.91-3,0-.95,9.74-5.03,19.09-11.49,26.43-1.27,1.44.84,3.57,2.12,2.12h0Z"/>
  <path class="cls-2" d="M535.27,421.55c-12.04-2.61-24.96,2.46-32.05,12.51-1.12,1.58,1.48,3.08,2.59,1.51,6.28-8.9,18.03-13.44,28.67-11.13,1.88.41,2.69-2.48.8-2.89h0Z"/>
  <path class="cls-2" d="M516.17,376.73c1.99-2.3,4.91-3.29,7.91-3.06,3.3.25,5.92,2.13,7.42,5.04,1.74,3.38,2.17,7.33,4.3,10.54s5.21,5.39,9.08,4.82c1.9-.28,1.09-3.17-.8-2.89-3.91.57-6.37-4.1-7.42-7.11-1.26-3.61-2.2-7.66-5.15-10.34-4.83-4.38-13.15-4.1-17.46.88-1.26,1.45.85,3.58,2.12,2.12h0Z"/>
  <path class="cls-2" d="M446.4,393.67c2.85-10.07,13.39-15.27,22.12-19.41,1.74-.83.22-3.41-1.51-2.59-9.52,4.52-20.4,10.28-23.5,21.21-.53,1.86,2.37,2.65,2.89.8h0Z"/>
  <path class="cls-2" d="M443.19,469.95c-2.48-2.42-5.81-3.34-9.13-3.93s-7.18-.92-9.5-3.51c-.9-1-1.59-2.42-1.48-3.79.13-1.51,1.22-2.46,2.48-3.14,2.86-1.55,6.03-2.16,7.86-5.15.92-1.5,1.14-3.35.29-4.93-.47-.89-2.62-2.47-2.27-3.37.71-1.79-2.19-2.57-2.89-.8-.6,1.51.21,2.85,1.18,3.97s2.07,2.05,1.1,3.62c-1.79,2.89-5.88,3.08-8.38,5.15-2.66,2.2-2.93,5.75-1.36,8.69,1.72,3.22,5.14,4.74,8.55,5.5,3.86.86,8.43.9,11.43,3.83,1.38,1.35,3.51-.77,2.12-2.12h0Z"/>
  <path class="cls-2" d="M477.44,492.32c1.3-1.77,3.84-2.16,5.84-1.56,1.01.3,1.92.9,2.52,1.78.87,1.26,1.17,2.78,2.28,3.91,1.97,1.99,5.14,2.06,7.64,1.21,3.08-1.04,5.37-3.55,8.43-4.61,1.81-.63,1.03-3.53-.8-2.89-3.22,1.12-5.66,3.85-8.92,4.76-1.2.34-2.69.48-3.79-.23-1.31-.84-1.56-2.68-2.42-3.9-3.15-4.46-10.23-4.27-13.38.02-1.14,1.56,1.46,3.05,2.59,1.51h0Z"/>
  <path class="cls-2" d="M533.96,464.74c5.29-3.23,11.22-6.88,13.83-12.78,2.2-4.97,2.05-11.45-2.27-15.25-1.44-1.27-3.57.84-2.12,2.12,3.55,3.12,3.45,8.59,1.36,12.54-2.61,4.93-7.7,7.97-12.31,10.78-1.65,1-.14,3.6,1.51,2.59h0Z"/>
  <path class="cls-1" d="M578.57,368.47c.38,18.65-7.68,33.1-21,45.2-2.6,2.36-5.61,4.27-9.04,6.83,3.55.12,6.51.23,9.48.32,26.45.74,42.99,13.84,53.61,37.24,2.11,4.66,1.01,9.42-1.79,13.55-11.03,16.26-26.34,24.94-46.09,25.27-12.78.21-24.61-3.15-35.82-10.94,2.75,11.53,2.15,22.23-1.71,32.56-4.14,11.08-10.66,20.47-21.8,25.56-2.65,1.21-6.1,1.76-8.95,1.25-15.09-2.7-35.05-15.25-38.69-34.92-1.73-9.36-.57-18.42,1.92-27.43.11-.4.23-.79.34-1.19-6.16,2.98-12.07,6.35-18.35,8.74-19.37,7.35-37.87,3.6-55.59-5.61-6.68-3.47-8.91-8.87-6.59-16.45,5.66-18.49,15.68-33.41,34.17-41.79,9.86-4.47,23.42-6.02,38.65-5.98-2.54-1.79-4.62-3.2-6.65-4.69-14.8-10.86-26.43-24.09-31.61-42.17-3.34-11.68-3.5-23.38-.57-35.17,1.23-4.96,5.23-6.66,9.37-7.7,20.47-5.15,38.69-1.46,54.01,13.89,8.38,8.39,14.46,18.07,18.03,29.12,2.71-5.7,5.16-11.67,8.27-17.27,8.39-15.09,21.43-24.04,38.12-27.91,4.03-.93,8.08-1.82,12.12-2.74,2.76-.63,5.06.14,7.22,1.96,12.55,10.58,18.6,24.02,18.93,40.46Z"/>
</svg>