<?xml version="1.0" encoding="UTF-8"?>
<svg id="Calque_1" data-name="Calque 1" xmlns="http://www.w3.org/2000/svg" viewBox="0 0 800 800">
  <path d="M401.05,359.85c-22.14,0-40.15,18.01-40.15,40.15s18.01,40.15,40.15,40.15,40.15-18.01,40.15-40.15-18.01-40.15-40.15-40.15Z"/>
  <path d="M450.8,296.69h-101.61c-28.95,0-52.5,23.55-52.5,52.5v101.61c0,28.95,23.55,52.5,52.5,52.5h101.61c28.95,0,52.51-23.55,52.51-52.5v-101.61c0-28.95-23.55-52.5-52.51-52.5ZM401.05,462.67c-34.56,0-62.68-28.12-62.68-62.68s28.11-62.68,62.68-62.68,62.68,28.12,62.68,62.68-28.12,62.68-62.68,62.68ZM467.38,348.03c-8.24,0-14.92-6.68-14.92-14.92s6.68-14.92,14.92-14.92,14.92,6.68,14.92,14.92-6.68,14.92-14.92,14.92Z"/>
  <path d="M400,190.06c-115.95,0-209.94,93.99-209.94,209.94s93.99,209.94,209.94,209.94,209.94-93.99,209.94-209.94-93.99-209.94-209.94-209.94ZM527.25,450.8c0,42.15-34.3,76.45-76.45,76.45h-101.61c-42.15,0-76.45-34.29-76.45-76.45v-101.61c0-42.15,34.3-76.45,76.45-76.45h101.61c42.15,0,76.45,34.29,76.45,76.45v101.61Z"/>
</svg>