<?xml version="1.0" encoding="UTF-8"?>
<svg id="Calque_1" data-name="Calque 1" xmlns="http://www.w3.org/2000/svg" viewBox="0 0 800 800">
  <path d="M400,190.04c-115.96,0-209.96,94-209.96,209.96s94,209.96,209.96,209.96,209.96-94,209.96-209.96-94-209.96-209.96-209.96ZM479.98,430.29c-26.95,33.43-70.65,35.64-90.8,15.12-1.55-1.57-2.8-3.41-4.32-5.29-.22.76-.43,1.39-.59,2.03-9.68,37.92-10.75,46.34-20.7,63.94-4.74,8.37-10.08,16.3-15.99,23.89-.67.86-1.29,1.97-2.63,1.69-1.46-.31-1.57-1.62-1.73-2.79-1.59-11.52-2.47-23.07-2.09-34.7.5-15.15,2.38-20.35,21.91-102.49.28-1.25-.04-2.29-.45-3.42-4.67-12.62-5.6-25.41-1.52-38.39,8.84-28.01,40.6-30.16,46.16-7.04,3.42,14.3-5.63,33-12.58,60.66-5.75,22.82,21.1,39.04,44.06,22.38,21.17-15.35,29.39-52.17,27.82-78.26-3.08-52.02-60.12-63.26-96.31-46.51-41.49,19.18-50.92,70.61-32.19,94.11,2.38,2.99,4.21,4.82,3.42,7.85-1.21,4.71-2.27,9.45-3.57,14.13-.97,3.48-3.88,4.75-7.4,3.32-6.91-2.79-12.66-7.19-17.32-12.98-15.91-19.7-20.46-58.66.57-91.65,23.3-36.54,66.65-51.33,106.22-46.84,47.27,5.38,77.14,37.67,82.74,74.31,2.55,16.69.71,57.84-22.71,86.93Z"/>
</svg>