<?xml version="1.0" encoding="UTF-8"?>
<svg id="Calque_1" data-name="Calque 1" xmlns="http://www.w3.org/2000/svg" viewBox="0 0 800 800">
  <polygon points="402.08 382.24 346.57 302.84 316.96 302.84 385.74 401.23 394.38 413.59 394.38 413.6 453.27 497.82 482.88 497.82 410.72 394.61 402.08 382.24"/>
  <path d="M400,192.5c-114.6,0-207.5,92.9-207.5,207.5s92.9,207.5,207.5,207.5,207.5-92.9,207.5-207.5-92.9-207.5-207.5-207.5ZM444.19,511.67l-59.59-86.71-74.6,86.71h-19.28l85.32-99.17-85.32-124.17h65.08l56.42,82.11,70.64-82.11h19.28l-81.36,94.57h0l88.48,128.77h-65.08Z"/>
</svg>